<svg xmlns="http://www.w3.org/2000/svg" xmlns:xlink="http://www.w3.org/1999/xlink" width="50" zoomAndPan="magnify" viewBox="0 0 37.5 37.499999" height="50" preserveAspectRatio="xMidYMid meet" version="1.2"><defs><clipPath id="57e7b123d9"><path d="M 2.082031 0 L 34.648438 0 L 34.648438 37 L 2.082031 37 Z M 2.082031 0 "/></clipPath></defs><g id="733d9a874d"><g clip-rule="nonzero" clip-path="url(#57e7b123d9)"><path style=" stroke:none;fill-rule:nonzero;fill:#5fa04e;fill-opacity:1;" d="M 18.421875 36.773438 C 17.925781 36.773438 17.464844 36.640625 17.03125 36.410156 L 12.632812 33.777344 C 11.972656 33.414062 12.304688 33.277344 12.5 33.210938 C 13.394531 32.914062 13.558594 32.847656 14.488281 32.3125 C 14.585938 32.246094 14.71875 32.28125 14.816406 32.347656 L 18.191406 34.378906 C 18.324219 34.445312 18.488281 34.445312 18.585938 34.378906 L 31.785156 26.6875 C 31.914062 26.621094 31.980469 26.488281 31.980469 26.320312 L 31.980469 10.96875 C 31.980469 10.804688 31.914062 10.667969 31.785156 10.601562 L 18.585938 2.945312 C 18.457031 2.878906 18.289062 2.878906 18.191406 2.945312 L 4.996094 10.601562 C 4.859375 10.667969 4.796875 10.835938 4.796875 10.96875 L 4.796875 26.320312 C 4.796875 26.453125 4.863281 26.621094 4.992188 26.6875 L 8.597656 28.785156 C 10.550781 29.78125 11.773438 28.617188 11.773438 27.453125 L 11.773438 12.300781 C 11.773438 12.101562 11.9375 11.902344 12.171875 11.902344 L 13.859375 11.902344 C 14.054688 11.902344 14.253906 12.066406 14.253906 12.300781 L 14.253906 27.453125 C 14.253906 30.082031 12.832031 31.613281 10.351562 31.613281 C 9.589844 31.613281 8.996094 31.613281 7.308594 30.78125 L 3.835938 28.785156 C 3.40625 28.53125 3.066406 28.191406 2.820312 27.753906 C 2.570312 27.320312 2.449219 26.855469 2.449219 26.351562 L 2.449219 11.003906 C 2.449219 10.5 2.570312 10.035156 2.820312 9.601562 C 3.066406 9.167969 3.40625 8.824219 3.835938 8.570312 L 17.03125 0.878906 C 17.859375 0.414062 18.984375 0.414062 19.8125 0.878906 L 33.007812 8.570312 C 33.4375 8.824219 33.777344 9.164062 34.023438 9.601562 C 34.273438 10.035156 34.398438 10.5 34.398438 11.003906 L 34.398438 26.351562 C 34.394531 26.855469 34.273438 27.320312 34.023438 27.757812 C 33.777344 28.191406 33.4375 28.53125 33.007812 28.785156 L 19.8125 36.476562 C 19.414062 36.640625 18.917969 36.773438 18.421875 36.773438 Z M 18.421875 36.773438 "/></g><path style=" stroke:none;fill-rule:nonzero;fill:#5fa04e;fill-opacity:1;" d="M 22.523438 26.21875 C 16.734375 26.21875 15.542969 23.554688 15.542969 21.292969 C 15.542969 21.09375 15.710938 20.890625 15.941406 20.890625 L 17.660156 20.890625 C 17.859375 20.890625 18.023438 21.023438 18.023438 21.226562 C 18.289062 22.988281 19.050781 23.855469 22.554688 23.855469 C 25.335938 23.855469 26.523438 23.222656 26.523438 21.726562 C 26.523438 20.859375 26.195312 20.226562 21.863281 19.792969 C 18.257812 19.425781 16.007812 18.628906 16.007812 15.730469 C 16.007812 13.035156 18.257812 11.4375 22.027344 11.4375 C 26.261719 11.4375 28.34375 12.902344 28.609375 16.097656 C 28.609375 16.199219 28.574219 16.296875 28.507812 16.398438 C 28.445312 16.464844 28.34375 16.53125 28.246094 16.53125 L 26.492188 16.53125 C 26.292969 16.523438 26.171875 16.425781 26.128906 16.230469 C 25.730469 14.398438 24.707031 13.800781 21.992188 13.800781 C 18.949219 13.800781 18.585938 14.867188 18.585938 15.664062 C 18.585938 16.628906 19.015625 16.929688 23.117188 17.460938 C 27.1875 17.996094 29.105469 18.761719 29.105469 21.625 C 29.105469 24.554688 26.691406 26.21875 22.523438 26.21875 Z M 22.523438 26.21875 "/></g></svg>