<svg xmlns="http://www.w3.org/2000/svg" xmlns:xlink="http://www.w3.org/1999/xlink" width="50" zoomAndPan="magnify" viewBox="0 0 37.5 37.499999" height="50" preserveAspectRatio="xMidYMid meet" version="1.2"><defs><clipPath id="74b23e6155"><path d="M 0 0 L 37.007812 0 L 37.007812 37.007812 L 0 37.007812 Z M 0 0 "/></clipPath><clipPath id="3781b28a10"><path d="M 0 0 L 37.007812 0 L 37.007812 37.007812 L 0 37.007812 Z M 0 0 "/></clipPath></defs><g id="131da18c83"><g clip-rule="nonzero" clip-path="url(#74b23e6155)"><path style=" stroke:none;fill-rule:nonzero;fill:#222222;fill-opacity:1;" d="M 0 0 L 37.007812 0 L 37.007812 37.007812 L 0 37.007812 Z M 0 0 "/></g><path style=" stroke:none;fill-rule:nonzero;fill:#00d8ff;fill-opacity:1;" d="M 21.570312 18.480469 C 21.570312 18.890625 21.492188 19.285156 21.332031 19.664062 C 21.175781 20.042969 20.953125 20.378906 20.664062 20.667969 C 20.371094 20.960938 20.039062 21.183594 19.660156 21.339844 C 19.28125 21.496094 18.886719 21.574219 18.476562 21.574219 C 18.0625 21.574219 17.667969 21.496094 17.289062 21.339844 C 16.910156 21.183594 16.578125 20.960938 16.285156 20.667969 C 15.996094 20.378906 15.773438 20.042969 15.617188 19.664062 C 15.457031 19.285156 15.378906 18.890625 15.378906 18.480469 C 15.378906 18.070312 15.457031 17.675781 15.617188 17.296875 C 15.773438 16.917969 15.996094 16.582031 16.285156 16.292969 C 16.578125 16.003906 16.910156 15.777344 17.289062 15.621094 C 17.667969 15.464844 18.0625 15.386719 18.476562 15.386719 C 18.886719 15.386719 19.28125 15.464844 19.660156 15.621094 C 20.039062 15.777344 20.371094 16.003906 20.664062 16.292969 C 20.953125 16.582031 21.175781 16.917969 21.332031 17.296875 C 21.492188 17.675781 21.570312 18.070312 21.570312 18.480469 Z M 21.570312 18.480469 "/><g clip-rule="nonzero" clip-path="url(#3781b28a10)"><path style="fill:none;stroke-width:144.746002;stroke-linecap:butt;stroke-linejoin:miter;stroke:#00d8ff;stroke-opacity:1;stroke-miterlimit:10;" d="M 1806.686631 1191.725675 C 2212.71368 1191.725675 2590.093476 1250.166068 2874.656178 1347.948688 C 3217.277309 1465.975365 3428.121082 1645.11618 3428.121082 1807.068643 C 3428.121082 1975.896447 3204.672518 2165.732235 2836.841805 2287.96051 C 2558.390518 2380.013679 2192.087658 2428.141062 1806.686631 2428.141062 C 1410.972593 2428.141062 1036.648503 2383.069386 755.141508 2286.81462 C 399.151659 2164.968309 184.870216 1972.458777 184.870216 1807.068643 C 184.870216 1646.26207 386.164905 1468.649109 723.820513 1351.004395 C 1009.529104 1251.311958 1396.457985 1191.725675 1806.686631 1191.725675 Z M 1806.686631 1191.725675 " transform="matrix(0.0102268,0,0,0.0102268,0.0000005,0)"/><path style="fill:none;stroke-width:144.746002;stroke-linecap:butt;stroke-linejoin:miter;stroke:#00d8ff;stroke-opacity:1;stroke-miterlimit:10;" d="M 1271.174004 1501.115994 C 1473.996547 1149.327742 1713.105608 851.778287 1939.991842 653.921268 C 2213.477606 415.958096 2473.976616 322.759037 2614.157168 403.735269 C 2760.449134 488.149171 2813.54204 776.531505 2735.239552 1156.585046 C 2676.035232 1443.82149 2534.70879 1784.914768 2341.817294 2119.132706 C 2144.342239 2461.753837 1918.219931 2763.122926 1694.389404 2959.070128 C 1410.972593 3206.964347 1137.104866 3296.343773 993.868607 3213.839688 C 854.451981 3133.245419 801.359075 2870.45463 867.820699 2518.666378 C 924.351276 2221.116922 1066.059681 1856.723879 1271.174004 1501.115994 Z M 1271.174004 1501.115994 " transform="matrix(0.0102268,0,0,0.0102268,0.0000005,0)"/><path style="fill:none;stroke-width:144.746002;stroke-linecap:butt;stroke-linejoin:miter;stroke:#00d8ff;stroke-opacity:1;stroke-miterlimit:10;" d="M 1271.555967 2119.896633 C 1067.969498 1768.108381 929.316799 1412.500495 871.640332 1117.24282 C 802.123001 761.252971 851.014311 489.295061 991.576826 407.936866 C 1137.486829 323.522964 1414.0283 421.687546 1703.938488 679.130849 C 1923.185455 873.932161 2148.161872 1166.516093 2341.435331 1500.352067 C 2539.674313 1842.591235 2688.258059 2189.032 2745.934526 2480.852005 C 2818.889527 2850.210572 2759.685207 3132.099529 2616.448948 3214.985578 C 2477.414286 3295.579846 2223.02669 3210.402017 1951.450743 2977.022406 C 1722.272729 2779.547351 1477.052253 2474.740591 1271.555967 2119.896633 Z M 1271.555967 2119.896633 " transform="matrix(0.0102268,0,0,0.0102268,0.0000005,0)"/></g></g></svg>