<svg xmlns="http://www.w3.org/2000/svg" xmlns:xlink="http://www.w3.org/1999/xlink" width="50" zoomAndPan="magnify" viewBox="0 0 37.5 37.499999" height="50" preserveAspectRatio="xMidYMid meet" version="1.2"><defs><clipPath id="8e3df0f2a1"><path d="M 0 0 L 37.007812 0 L 37.007812 37 L 0 37 Z M 0 0 "/></clipPath></defs><g id="85945a957a"><g clip-rule="nonzero" clip-path="url(#8e3df0f2a1)"><path style=" stroke:none;fill-rule:nonzero;fill:#6db33f;fill-opacity:1;" d="M 5.628906 5.1875 C 12.941406 -1.898438 24.632812 -1.707031 31.714844 5.644531 C 32.515625 4.578125 33.199219 3.398438 33.695312 2.179688 C 36.019531 9.261719 37.425781 15.203125 36.894531 19.808594 C 36.628906 23.695312 35.105469 27.425781 32.589844 30.394531 C 26.042969 38.164062 14.386719 39.15625 6.621094 32.605469 L 6.472656 32.472656 L 6.464844 32.46875 C 6.4375 32.449219 6.414062 32.433594 6.390625 32.414062 C 6.320312 32.359375 6.257812 32.300781 6.199219 32.234375 L 6.175781 32.210938 L 5.933594 31.996094 C 5.699219 31.792969 5.460938 31.589844 5.25 31.359375 L 5.171875 31.273438 C -1.910156 23.960938 -1.683594 12.269531 5.628906 5.1875 Z M 8.371094 29.976562 C 7.6875 29.445312 6.695312 29.519531 6.164062 30.207031 C 5.695312 30.808594 5.695312 31.648438 6.167969 32.203125 L 6.175781 32.210938 L 6.472656 32.472656 L 6.5 32.492188 C 7.164062 32.929688 8.0625 32.839844 8.570312 32.222656 L 8.601562 32.1875 C 9.132812 31.5 9.019531 30.511719 8.371094 29.976562 Z M 33.503906 4.082031 C 31.601562 8.082031 26.878906 11.128906 22.804688 12.078125 C 18.957031 12.992188 15.605469 12.230469 12.066406 13.601562 C 3.992188 16.6875 4.144531 26.285156 8.5625 28.453125 L 8.828125 28.605469 C 8.828125 28.605469 12.019531 27.972656 15.175781 27.132812 L 15.445312 27.0625 C 16.707031 26.722656 17.945312 26.351562 18.957031 25.980469 C 24.214844 24.035156 30 19.238281 31.90625 13.679688 C 30.914062 19.46875 25.925781 25.066406 20.9375 27.617188 C 18.273438 28.988281 16.214844 29.292969 11.835938 30.816406 C 11.304688 31.003906 10.886719 31.195312 10.886719 31.195312 C 10.9375 31.1875 10.992188 31.179688 11.046875 31.175781 L 11.152344 31.160156 L 11.257812 31.148438 C 12.222656 31.027344 13.09375 30.96875 13.09375 30.96875 C 19.300781 30.664062 29.050781 32.71875 33.582031 26.664062 C 38.226562 20.496094 35.636719 10.519531 33.503906 4.082031 Z M 33.503906 4.082031 "/></g><path style=" stroke:none;fill-rule:nonzero;fill:#ffffff;fill-opacity:1;" d="M 8.371094 29.976562 C 9.019531 30.511719 9.132812 31.5 8.601562 32.1875 C 8.066406 32.871094 7.078125 32.949219 6.390625 32.414062 C 5.707031 31.882812 5.628906 30.890625 6.164062 30.207031 C 6.695312 29.519531 7.6875 29.445312 8.371094 29.976562 Z M 33.503906 4.082031 C 35.636719 10.519531 38.226562 20.496094 33.582031 26.664062 C 29.050781 32.71875 19.300781 30.664062 13.09375 30.96875 C 13.09375 30.96875 12.222656 31.027344 11.257812 31.148438 L 11.152344 31.160156 C 11.0625 31.171875 10.972656 31.183594 10.886719 31.195312 C 10.886719 31.195312 11.304688 31.003906 11.835938 30.816406 C 16.214844 29.292969 18.273438 28.988281 20.9375 27.617188 C 25.925781 25.066406 30.914062 19.46875 31.90625 13.679688 C 30 19.238281 24.214844 24.035156 18.957031 25.980469 C 15.339844 27.3125 8.828125 28.605469 8.828125 28.605469 L 8.5625 28.453125 C 4.144531 26.285156 3.992188 16.6875 12.066406 13.601562 C 15.605469 12.230469 18.957031 12.992188 22.804688 12.078125 C 26.878906 11.128906 31.601562 8.082031 33.503906 4.082031 Z M 33.503906 4.082031 "/></g></svg>